# xmcd
#
# Track frame offsets:
#	150
#	13046
#	27119
#	40846
#	54472
#	68467
#	83119
#	95752
#	106906
#	120720
#	135706
#	151985
#	164573
#	176328
#	191690
#	200769
#	211131
#	220993
#	232676
#	245075
#	257592
#	272185
#	285871
#	298884
#	311705
#
# Disc length: 4319 seconds
#
# Revision: 1
# Processed by: cddbd v1.5.2PL0 Copyright (c) Steve Scherf et al.
# Submitted via: audiograbber 1.83.01
#
DISCID=6810dd19
DTITLE=Elton Britt - Elton Britt and Friends Vol. 3
DYEAR=2011
DGENRE=Hillbilly
TTITLE0=The Wenatchee Mountaineers - Britt's Reel
TTITLE1=The Wenatchee Mountaineers - I Like Mountain Music
TTITLE2=Elton Britt - Good Night, Little Girl of My Dreams
TTITLE3=Britt and Ford - Take Me Home
TTITLE4=Britt and Ford - Free Wheelin' Hobo
TTITLE5=Pappy, Zeke, Ezra and Elton - Isle of Capri
TTITLE6=Pappy, Zeke, Ezra and Elton - Open Up Them Pearly Gates
TTITLE7=Pappy, Zeke, Ezra and Elton - The Lady in Red
TTITLE8=Pappy, Zeke, Ezra and Elton - In a Little Gypsy Tearoom
TTITLE9=Pappy, Ezra and Elton - Red Sails in the Sunset
TTITLE10=The Langworth Hillbillies - Cowboy's Dream
TTITLE11=The Langworth Hillbillies - Whoopee Ti-Yi-Yo
TTITLE12=The Langworth Hillbillies - Roving Gambler
TTITLE13=The Langworth Hillbillies - Drunkard's Blues
TTITLE14=The Langworth Hillbillies - Standing in the Need of Prayer
TTITLE15=The Langworth Hillbillies - My Darling Clementine
TTITLE16=The Langworth Hillbillies - Aunt Dinah's Quilting Party
TTITLE17=The Langworth Hillbillies - Sweet and Low
TTITLE18=Zeke Manners and his Swingbillies - Mr. Ghost Goes to Town
TTITLE19=Zeke Manners and his Swingbillies - Leave It Up to Uncle Jake
TTITLE20=Elton Britt - I'll Never Smile Again
TTITLE21=Elton Britt - Goodbye, Little Darlin'
TTITLE22=Elton Britt - Rocky Mountain Lullaby
TTITLE23=Elton Britt - Everybody Has the Right to be Screwy
TTITLE24=The Musical Mavericks - Rocky Mountain Moon
EXTD=
EXTT0=
EXTT1=
EXTT2=
EXTT3=
EXTT4=
EXTT5=
EXTT6=
EXTT7=
EXTT8=
EXTT9=
EXTT10=
EXTT11=
EXTT12=
EXTT13=
EXTT14=
EXTT15=
EXTT16=
EXTT17=
EXTT18=
EXTT19=
EXTT20=
EXTT21=
EXTT22=
EXTT23=
EXTT24=
PLAYORDER=
